REM DIRINDEX 1\2\4\18,1\2\4\19,1\2\5\20,1\2\5\21,1\2\6\22,1\2\6\23,1\2\7\24,1\2\7\25,1\2\8\26,1\2\8\27,1\2\9\28,1\2\9\29,1\2\10\30,1\3\11\31,1\3\11\32,1\3\11\33,1\3\11\34,1\3\11\35,1\3\12\36,1\3\12\37,1\3\12\38,1\3\12\39,1\3\12\40,1\3\13\41,1\3\13\42,1\3\13\43,1\3\13\44,1\3\13\45,1\3\14\46,1\3\14\47,1\3\14\48,1\3\14\49,1\3\15\50,1\3\15\51,1\3\15\52,1\3\15\53,1\3\15\54,1\3\16\55,1\3\16\56,1\3\16\57,1\3\16\58,1\3\16\59,1\3\17\60,1\3\17\61
REM DIRNAME "folder01","folder02","folder03","folder04","folder05","folder06","folder07","folder08","folder09","folder10","folder11","folder12","folder13","folder14","folder15","folder16","folder17","folder18","folder19","folder20","folder21","folder22","folder23","folder24","folder25","folder26","folder27","folder28","folder29","folder30","folder31","folder32","folder33","folder34","folder35","folder36","folder37","folder38","folder39","folder40","folder41","folder42","folder43","folder44","folder45","folder46","folder47","folder48","folder49","folder50","folder51","folder52","folder53","folder54","folder55","folder56","folder57","folder58","folder59","folder60","folder61"
TITLE ""
FILE "TOEIC LR Kinnojyukugo_03.mp3" MP3
  TRACK 01 AUDIO
    TITLE "0:"
    INDEX 01 00:00:00
  TRACK 02 AUDIO
    TITLE "55:cjc160_2579"
    INDEX 01 00:00:12
  TRACK 03 AUDIO
    TITLE "0:"
    INDEX 01 00:01:20
  TRACK 04 AUDIO
    TITLE "56:cjc160_2580"
    INDEX 01 00:01:59
  TRACK 05 AUDIO
    TITLE "0:"
    INDEX 01 00:03:16
  TRACK 06 AUDIO
    TITLE "57:cjc160_2581"
    INDEX 01 00:03:56
  TRACK 07 AUDIO
    TITLE "0:"
    INDEX 01 00:06:50
  TRACK 08 AUDIO
    TITLE "58:cjc160_2582"
    INDEX 01 00:07:12
  TRACK 09 AUDIO
    TITLE "0:"
    INDEX 01 00:09:72
  TRACK 10 AUDIO
    TITLE "59:cjc160_2583"
    INDEX 01 00:10:22
  TRACK 11 AUDIO
    TITLE "0:"
    INDEX 01 00:13:05
  TRACK 12 AUDIO
    TITLE "55:cjc160_2584"
    INDEX 01 00:14:07
  TRACK 13 AUDIO
    TITLE "0:"
    INDEX 01 00:15:14
  TRACK 14 AUDIO
    TITLE "56:cjc160_2585"
    INDEX 01 00:15:53
  TRACK 15 AUDIO
    TITLE "0:"
    INDEX 01 00:17:56
  TRACK 16 AUDIO
    TITLE "57:cjc160_2586"
    INDEX 01 00:18:28
  TRACK 17 AUDIO
    TITLE "0:"
    INDEX 01 00:20:44
  TRACK 18 AUDIO
    TITLE "58:cjc160_2587"
    INDEX 01 00:21:14
  TRACK 19 AUDIO
    TITLE "0:"
    INDEX 01 00:23:37
  TRACK 20 AUDIO
    TITLE "59:cjc160_2588"
    INDEX 01 00:23:68
  TRACK 21 AUDIO
    TITLE "0:"
    INDEX 01 00:26:18
  TRACK 22 AUDIO
    TITLE "55:cjc160_2589"
    INDEX 01 00:27:17
  TRACK 23 AUDIO
    TITLE "0:"
    INDEX 01 00:28:28
  TRACK 24 AUDIO
    TITLE "56:cjc160_2590"
    INDEX 01 00:28:67
  TRACK 25 AUDIO
    TITLE "0:"
    INDEX 01 00:31:27
  TRACK 26 AUDIO
    TITLE "57:cjc160_2591"
    INDEX 01 00:31:68
  TRACK 27 AUDIO
    TITLE "0:"
    INDEX 01 00:34:44
  TRACK 28 AUDIO
    TITLE "58:cjc160_2592"
    INDEX 01 00:35:07
  TRACK 29 AUDIO
    TITLE "0:"
    INDEX 01 00:37:37
  TRACK 30 AUDIO
    TITLE "59:cjc160_2593"
    INDEX 01 00:37:62
  TRACK 31 AUDIO
    TITLE "0:"
    INDEX 01 00:40:16
  TRACK 32 AUDIO
    TITLE "55:cjc160_2594"
    INDEX 01 00:41:17
  TRACK 33 AUDIO
    TITLE "0:"
    INDEX 01 00:42:24
  TRACK 34 AUDIO
    TITLE "56:cjc160_2595"
    INDEX 01 00:42:56
  TRACK 35 AUDIO
    TITLE "0:"
    INDEX 01 00:44:13
  TRACK 36 AUDIO
    TITLE "57:cjc160_2596"
    INDEX 01 00:44:59
  TRACK 37 AUDIO
    TITLE "0:"
    INDEX 01 00:47:27
  TRACK 38 AUDIO
    TITLE "58:cjc160_2597"
    INDEX 01 00:47:67
  TRACK 39 AUDIO
    TITLE "0:"
    INDEX 01 00:50:12
  TRACK 40 AUDIO
    TITLE "59:cjc160_2598"
    INDEX 01 00:50:36
  TRACK 41 AUDIO
    TITLE "0:"
    INDEX 01 00:52:56
  TRACK 42 AUDIO
    TITLE "55:cjc160_2599"
    INDEX 01 00:53:57
  TRACK 43 AUDIO
    TITLE "0:"
    INDEX 01 00:54:67
  TRACK 44 AUDIO
    TITLE "56:cjc160_2600"
    INDEX 01 00:55:27
  TRACK 45 AUDIO
    TITLE "0:"
    INDEX 01 00:56:30
  TRACK 46 AUDIO
    TITLE "57:cjc160_2601"
    INDEX 01 00:56:70
  TRACK 47 AUDIO
    TITLE "0:"
    INDEX 01 00:59:01
  TRACK 48 AUDIO
    TITLE "58:cjc160_2602"
    INDEX 01 00:59:40
  TRACK 49 AUDIO
    TITLE "0:"
    INDEX 01 01:02:13
  TRACK 50 AUDIO
    TITLE "59:cjc160_2603"
    INDEX 01 01:02:39
  TRACK 51 AUDIO
    TITLE "0:"
    INDEX 01 01:05:10
  TRACK 52 AUDIO
    TITLE "55:cjc160_2604"
    INDEX 01 01:06:11
  TRACK 53 AUDIO
    TITLE "0:"
    INDEX 01 01:07:20
  TRACK 54 AUDIO
    TITLE "56:cjc160_2605"
    INDEX 01 01:07:60
  TRACK 55 AUDIO
    TITLE "0:"
    INDEX 01 01:10:42
  TRACK 56 AUDIO
    TITLE "57:cjc160_2606"
    INDEX 01 01:11:04
  TRACK 57 AUDIO
    TITLE "0:"
    INDEX 01 01:13:17
  TRACK 58 AUDIO
    TITLE "58:cjc160_2607"
    INDEX 01 01:13:54
  TRACK 59 AUDIO
    TITLE "0:"
    INDEX 01 01:16:39
  TRACK 60 AUDIO
    TITLE "59:cjc160_2608"
    INDEX 01 01:16:68
  TRACK 61 AUDIO
    TITLE "0:"
    INDEX 01 01:19:49
  TRACK 62 AUDIO
    TITLE "55:cjc160_2609"
    INDEX 01 01:20:50
  TRACK 63 AUDIO
    TITLE "0:"
    INDEX 01 01:21:54
  TRACK 64 AUDIO
    TITLE "56:cjc160_2610"
    INDEX 01 01:22:14
  TRACK 65 AUDIO
    TITLE "0:"
    INDEX 01 01:23:23
  TRACK 66 AUDIO
    TITLE "57:cjc160_2611"
    INDEX 01 01:23:64
  TRACK 67 AUDIO
    TITLE "0:"
    INDEX 01 01:25:73
  TRACK 68 AUDIO
    TITLE "58:cjc160_2612"
    INDEX 01 01:26:37
  TRACK 69 AUDIO
    TITLE "0:"
    INDEX 01 01:28:52
  TRACK 70 AUDIO
    TITLE "59:cjc160_2613"
    INDEX 01 01:29:02
  TRACK 71 AUDIO
    TITLE "0:"
    INDEX 01 01:31:17
  TRACK 72 AUDIO
    TITLE "55:cjc160_2614"
    INDEX 01 01:32:18
  TRACK 73 AUDIO
    TITLE "0:"
    INDEX 01 01:33:35
  TRACK 74 AUDIO
    TITLE "56:cjc160_2615"
    INDEX 01 01:34:02
  TRACK 75 AUDIO
    TITLE "0:"
    INDEX 01 01:35:68
  TRACK 76 AUDIO
    TITLE "57:cjc160_2616"
    INDEX 01 01:36:30
  TRACK 77 AUDIO
    TITLE "0:"
    INDEX 01 01:38:39
  TRACK 78 AUDIO
    TITLE "58:cjc160_2617"
    INDEX 01 01:39:03
  TRACK 79 AUDIO
    TITLE "0:"
    INDEX 01 01:41:15
  TRACK 80 AUDIO
    TITLE "59:cjc160_2618"
    INDEX 01 01:41:41
  TRACK 81 AUDIO
    TITLE "0:"
    INDEX 01 01:43:52
  TRACK 82 AUDIO
    TITLE "55:cjc160_2619"
    INDEX 01 01:44:53
  TRACK 83 AUDIO
    TITLE "0:"
    INDEX 01 01:45:52
  TRACK 84 AUDIO
    TITLE "56:cjc160_2620"
    INDEX 01 01:46:18
  TRACK 85 AUDIO
    TITLE "0:"
    INDEX 01 01:48:62
  TRACK 86 AUDIO
    TITLE "57:cjc160_2621"
    INDEX 01 01:49:25
  TRACK 87 AUDIO
    TITLE "0:"
    INDEX 01 01:51:55
  TRACK 88 AUDIO
    TITLE "58:cjc160_2622"
    INDEX 01 01:52:17
  TRACK 89 AUDIO
    TITLE "0:"
    INDEX 01 01:54:40
  TRACK 90 AUDIO
    TITLE "59:cjc160_2623"
    INDEX 01 01:54:65
  TRACK 91 AUDIO
    TITLE "0:"
    INDEX 01 01:57:12
  TRACK 92 AUDIO
    TITLE "55:cjc160_2624"
    INDEX 01 01:58:16
  TRACK 93 AUDIO
    TITLE "0:"
    INDEX 01 01:59:21
  TRACK 94 AUDIO
    TITLE "56:cjc160_2625"
    INDEX 01 01:59:58
  TRACK 95 AUDIO
    TITLE "0:"
    INDEX 01 02:00:68
  TRACK 96 AUDIO
    TITLE "57:cjc160_2626"
    INDEX 01 02:01:30
  TRACK 97 AUDIO
    TITLE "0:"
    INDEX 01 02:03:64
  TRACK 98 AUDIO
    TITLE "58:cjc160_2627"
    INDEX 01 02:04:28
  TRACK 99 AUDIO
    TITLE "0:"
    INDEX 01 02:06:23
  TRACK 100 AUDIO
    TITLE "59:cjc160_2628"
    INDEX 01 02:06:49
  TRACK 101 AUDIO
    TITLE "0:"
    INDEX 01 02:08:44
